<svg width="74" height="73" viewBox="0 0 74 73" fill="none" xmlns="http://www.w3.org/2000/svg">
<path d="M28.4313 18.6053C24.4954 17.8149 20.4087 18.3443 16.8041 20.1115C13.1995 21.8787 10.2782 24.7851 8.49258 28.3806C6.70698 31.9761 6.15672 36.0601 6.92704 40C7.69737 43.9399 9.74527 47.5158 12.7536 50.174C15.7619 52.8322 19.5628 54.4243 23.5675 54.7038C27.5723 54.9832 31.5574 53.9344 34.9058 51.7198C38.2541 49.5052 40.7788 46.2483 42.0888 42.4536C43.3989 38.6588 43.4212 34.5381 42.1522 30.7294M45.5558 54.3936C49.4959 55.188 53.588 54.6595 57.197 52.8901C60.8059 51.1207 63.7298 48.2095 65.5147 44.6082C67.2997 41.0069 67.8458 36.9171 67.0684 32.9736C66.2909 29.0302 64.2334 25.4537 61.2152 22.7993C58.197 20.145 54.387 18.5612 50.3765 18.294C46.366 18.0267 42.3795 19.0909 39.0358 21.3213C35.6921 23.5517 33.1782 26.8236 31.8844 30.629C30.5906 34.4344 30.5892 38.5605 31.8805 42.3668" stroke="#2A3084" stroke-width="6" stroke-linecap="round" stroke-linejoin="round"/>
</svg>
