<svg width="74" height="73" viewBox="0 0 74 73" fill="none" xmlns="http://www.w3.org/2000/svg">
<g clip-path="url(#clip0_101_2398)">
<path d="M37.3142 -0.000291568C38.5095 -0.000291568 39.6867 0.0772709 40.7817 0.259771C41.8601 0.401084 42.9241 0.636183 43.9617 0.962396C45.002 1.27721 46.0194 1.66958 47.0368 2.16233C48.0269 2.63227 49.0443 3.20715 50.0618 3.83221C51.7818 4.92721 53.4745 5.81233 55.1992 6.51952C58.5943 7.87838 62.1845 8.68698 65.8343 8.91483C67.6867 9.04714 69.5893 9.12471 71.5694 9.12471V27.3747C71.5694 30.8422 71.1268 34.1272 70.2417 37.2571C69.3915 40.3423 68.1833 43.3175 66.6419 46.122C65.107 48.9226 63.2908 51.5597 61.2217 53.9923C59.1207 56.4803 56.8459 58.8161 54.4144 60.9821C51.9507 63.1545 49.3559 65.1734 46.6445 67.0274C43.9343 68.9071 41.1968 70.6546 38.4593 72.2423L37.3643 72.8948L36.2693 72.2423C33.4552 70.6131 30.7064 68.8734 28.0295 67.0274C25.3029 65.1943 22.7067 63.1743 20.2595 60.9821C17.8295 58.816 15.5562 56.4802 13.4568 53.9923C11.3932 51.5493 9.56894 48.9138 8.00922 46.122C6.49415 43.305 5.28724 40.3329 4.4094 37.2571C3.51866 34.0393 3.0795 30.7134 3.10453 27.3747V9.12471C5.08922 9.12471 6.99178 9.04714 8.84415 8.91483C10.6676 8.78818 12.4793 8.52741 14.2644 8.13465C16.0118 7.74227 17.7593 7.22215 19.4793 6.51952C21.2642 5.79917 22.9755 4.9084 24.5893 3.85958C26.5968 2.55471 28.6317 1.59202 30.6392 0.957833C32.8012 0.295046 35.053 -0.0281753 37.3142 -0.000291568ZM66.9795 13.6096C63.5258 13.4421 60.1043 12.8647 56.7869 11.8896C53.487 10.9052 50.3439 9.45659 47.452 7.58715C45.952 6.60254 44.323 5.83024 42.6112 5.29221C40.9013 4.77544 39.1232 4.52009 37.337 4.53483C35.5375 4.52319 33.7463 4.77843 32.0217 5.29221C30.3074 5.81275 28.6804 6.58625 27.1945 7.58715C24.2976 9.46679 21.1464 10.9218 17.8368 11.9078C14.602 12.8477 11.2167 13.4226 7.66703 13.6325V27.3975C7.66703 30.4225 8.0594 33.3151 8.84415 36.1028C9.64362 38.8662 10.7453 41.5331 12.1292 44.0552C13.5296 46.6035 15.1802 49.0061 17.0567 51.2275C18.9592 53.4676 20.9895 55.5527 23.1795 57.5328C25.3695 59.5175 27.6645 61.3425 30.0643 63.0352C32.487 64.7325 34.9143 66.27 37.337 67.6753C39.8177 66.2311 42.2364 64.683 44.5868 63.0352C47.0025 61.3478 49.3096 59.5101 51.4944 57.5328C53.6844 55.5527 55.7193 53.4676 57.6218 51.2275C59.4984 49.0063 61.1491 46.6037 62.5493 44.0552C63.9271 41.5363 65.0124 38.8682 65.7842 36.1028C66.5927 33.2722 66.9952 30.3412 66.9795 27.3975V13.6096Z" fill="#2A3084"/>
<path fill-rule="evenodd" clip-rule="evenodd" d="M54.3229 21.4844L52.3154 19.7598L50.463 19.9195L30.5705 43.4072L23.7952 33.7347L21.9702 33.4245L19.8578 34.9346L19.543 36.7596L28.2528 49.197L29.2428 49.7445L31.3279 49.8723L32.3955 49.4069L54.4552 23.3322L54.3229 21.4844Z" fill="#2A3084"/>
</g>
<defs>
<clipPath id="clip0_101_2398">
<rect width="73" height="73" fill="white" transform="translate(0.5)"/>
</clipPath>
</defs>
</svg>
