<svg width="74" height="73" viewBox="0 0 74 73" fill="none" xmlns="http://www.w3.org/2000/svg">
<path d="M12.667 42.5833C12.667 37.2604 13.9344 32.5205 16.4691 28.3635C19.0038 24.2066 21.792 20.7087 24.8337 17.8698C27.8753 15.0309 30.6635 12.8632 33.1982 11.3667L37.0003 9.125V19.1625C37.0003 21.0382 37.634 22.5205 38.9014 23.6094C40.1687 24.7004 41.5882 25.2458 43.1597 25.2458C44.0215 25.2458 44.8458 25.0684 45.6326 24.7135C46.4173 24.3587 47.1392 23.7757 47.7982 22.9646L49.167 21.2917C52.817 23.4208 55.7573 26.3733 57.9878 30.149C60.2184 33.9268 61.3337 38.0715 61.3337 42.5833C61.3337 47.0444 60.2437 51.1122 58.0639 54.7865C55.884 58.4629 53.0198 61.3656 49.4712 63.4948C50.333 62.2781 51.0052 60.9469 51.4878 59.5011C51.9684 58.0573 52.2087 56.5243 52.2087 54.9021C52.2087 52.8743 51.8284 50.9611 51.068 49.1625C50.3076 47.3618 49.2177 45.7517 47.7982 44.3323L37.0003 33.7625L26.2785 44.3323C24.8083 45.8024 23.693 47.4247 22.9326 49.199C22.1722 50.9733 21.792 52.8743 21.792 54.9021C21.792 56.5243 22.0333 58.0573 22.5159 59.5011C22.9965 60.9469 23.6677 62.2781 24.5295 63.4948C20.9809 61.3656 18.1166 58.4629 15.9368 54.7865C13.7569 51.1122 12.667 47.0444 12.667 42.5833ZM37.0003 42.2792L43.4639 48.5906C44.3257 49.4524 44.9847 50.4156 45.4409 51.4802C45.8972 52.5448 46.1253 53.6854 46.1253 54.9021C46.1253 57.3861 45.2382 59.5021 43.4639 61.25C41.6896 63 39.535 63.875 37.0003 63.875C34.4656 63.875 32.3111 63 30.5368 61.25C28.7625 59.5021 27.8753 57.3861 27.8753 54.9021C27.8753 53.7361 28.1035 52.6087 28.5597 51.5197C29.016 50.4288 29.675 49.4524 30.5368 48.5906L37.0003 42.2792Z" fill="#2A3084"/>
</svg>
