<svg width="74" height="73" viewBox="0 0 74 73" fill="none" xmlns="http://www.w3.org/2000/svg">
<path d="M39.3573 73C35.6566 73 32.2732 72.3024 29.2072 70.9073C26.1392 69.5143 23.4899 67.6649 21.2594 65.3593C19.0288 63.0517 17.293 60.3771 16.052 57.3354C14.809 54.2938 14.1875 51.1507 14.1875 47.9063V17.4896C14.1875 16.425 14.5555 15.5247 15.2916 14.7886C16.0257 14.0545 16.925 13.6875 17.9896 13.6875C19.0542 13.6875 19.9545 14.0545 20.6906 14.7886C21.4246 15.5247 21.7917 16.425 21.7917 17.4896V36.5H24.8333V8.36458C24.8333 7.3 25.2014 6.39967 25.9375 5.66358C26.6715 4.92953 27.5708 4.5625 28.6354 4.5625C29.7 4.5625 30.5993 4.92953 31.3334 5.66358C32.0695 6.39967 32.4375 7.3 32.4375 8.36458V33.4583H35.4792V3.80208C35.4792 2.7375 35.8472 1.83717 36.5833 1.10108C37.3173 0.367028 38.2167 0 39.2813 0C40.3458 0 41.2452 0.367028 41.9792 1.10108C42.7153 1.83717 43.0833 2.7375 43.0833 3.80208V33.4583H46.125V9.88542C46.125 8.82083 46.493 7.9205 47.2291 7.18442C47.9632 6.45036 48.8625 6.08333 49.9271 6.08333C50.9917 6.08333 51.892 6.45036 52.6281 7.18442C53.3621 7.9205 53.7292 8.82083 53.7292 9.88542V42.6594C50.5861 43.0649 48.026 44.4215 46.049 46.7291C44.0719 49.0347 43.0833 51.7083 43.0833 54.75H46.125C46.125 52.2153 47.0122 50.0608 48.7865 48.2865C50.5608 46.5122 52.7153 45.625 55.25 45.625H56.7708V28.1354C56.7708 27.0708 57.1389 26.1715 57.875 25.4375C58.609 24.7014 59.5083 24.3333 60.5729 24.3333C61.6375 24.3333 62.5378 24.7014 63.2739 25.4375C64.008 26.1715 64.375 27.0708 64.375 28.1354V47.9063C64.375 51.1507 63.7667 54.2806 62.55 57.2959C61.3333 60.3132 59.6219 62.9879 57.4157 65.3198C55.2115 67.6517 52.5764 69.5143 49.5104 70.9073C46.4424 72.3024 43.058 73 39.3573 73Z" fill="#2A3084"/>
</svg>
