<svg width="74" height="73" viewBox="0 0 74 73" fill="none" xmlns="http://www.w3.org/2000/svg">
<path d="M14.1875 36.5H27.875V41.0625H14.1875V36.5ZM14.1875 27.375H37V31.9375H14.1875V27.375ZM14.1875 18.25H37V22.8125H14.1875V18.25Z" fill="#2A3084"/>
<path d="M32.4375 59.3125H9.625V13.6875H64.375V36.5H68.9375V13.6875C68.9375 12.4774 68.4568 11.317 67.6012 10.4613C66.7455 9.60569 65.585 9.125 64.375 9.125H9.625C8.41495 9.125 7.25446 9.60569 6.39883 10.4613C5.54319 11.317 5.0625 12.4774 5.0625 13.6875V59.3125C5.0625 60.5225 5.54319 61.683 6.39883 62.5387C7.25446 63.3943 8.41495 63.875 9.625 63.875H32.4375V59.3125Z" fill="#2A3084"/>
<path d="M50.6875 58.3772L44.7791 52.4688L41.5625 55.6853L50.6875 64.8103L68.9375 46.5603L65.7209 43.3438L50.6875 58.3772Z" fill="#2A3084"/>
</svg>
