<svg width="74" height="73" viewBox="0 0 74 73" fill="none" xmlns="http://www.w3.org/2000/svg">
<g clip-path="url(#clip0_101_2405)">
<path d="M48.0107 34.128C47.6316 33.7435 47.1152 33.5253 46.5752 33.5215C46.0352 33.5177 45.5158 33.7286 45.1313 34.1077C44.7467 34.4869 44.5286 35.0033 44.5248 35.5433C44.521 36.0833 44.7318 36.6027 45.111 36.9872L52.6543 44.6116H16.3774C15.8396 44.6116 15.3238 44.8253 14.9435 45.2056C14.5633 45.5858 14.3496 46.1016 14.3496 46.6394C14.3496 47.1772 14.5633 47.693 14.9435 48.0733C15.3238 48.4536 15.8396 48.6672 16.3774 48.6672H52.6543L45.111 56.17C44.9233 56.359 44.7746 56.5832 44.6735 56.8297C44.5724 57.0763 44.5209 57.3403 44.5218 57.6067C44.5228 57.8732 44.5762 58.1368 44.679 58.3826C44.7818 58.6284 44.9321 58.8515 45.1211 59.0393C45.3102 59.227 45.5344 59.3757 45.7809 59.4768C46.0274 59.5779 46.2914 59.6294 46.5579 59.6285C46.8243 59.6275 47.088 59.5741 47.3338 59.4713C47.5796 59.3684 47.8027 59.2182 47.9904 59.0291L60.3802 46.6394L48.0107 34.128Z" fill="#2A3084"/>
<path d="M27.348 37.4123C27.7508 37.4146 28.1451 37.2969 28.4807 37.0743C28.8164 36.8516 29.0781 36.5341 29.2326 36.1621C29.387 35.7901 29.4272 35.3806 29.348 34.9857C29.2687 34.5908 29.0737 34.2284 28.7877 33.9448L21.2647 26.3609H57.5213C58.0591 26.3609 58.5749 26.1472 58.9552 25.7669C59.3355 25.3867 59.5491 24.8709 59.5491 24.3331C59.5491 23.7953 59.3355 23.2795 58.9552 22.8992C58.5749 22.519 58.0591 22.3053 57.5213 22.3053H21.2647L28.7877 14.7417C28.9755 14.5526 29.1241 14.3284 29.2252 14.0819C29.3263 13.8354 29.3778 13.5714 29.3769 13.305C29.376 13.0385 29.3226 12.7749 29.2197 12.5291C29.1169 12.2833 28.9666 12.0601 28.7776 11.8724C28.5885 11.6847 28.3643 11.536 28.1178 11.4349C27.8713 11.3338 27.6073 11.2823 27.3408 11.2832C26.8027 11.2851 26.2874 11.5007 25.9083 11.8825L13.5186 24.3331L25.9083 36.7836C26.0944 36.9789 26.3176 37.1351 26.5648 37.243C26.812 37.351 27.0783 37.4085 27.348 37.4123Z" fill="#2A3084"/>
</g>
<defs>
<clipPath id="clip0_101_2405">
<rect width="73" height="73" fill="white" transform="translate(0.5)"/>
</clipPath>
</defs>
</svg>
